<svg width="512" height="512" viewBox="0 0 512 512" fill="none" xmlns="http://www.w3.org/2000/svg">
  <rect width="512" height="512" rx="120" fill="#F8FAFC"/>
  <rect x="72" y="72" width="368" height="368" rx="92" fill="url(#paint0_linear)"/>
  <rect x="146" y="120" width="220" height="196" rx="46" fill="#FFF7ED"/>
  <rect x="174" y="148" width="72" height="72" rx="20" fill="#0F172A"/>
  <rect x="266" y="148" width="72" height="72" rx="20" fill="#0F172A"/>
  <rect x="164" y="248" width="184" height="24" rx="12" fill="#F97316"/>
  <rect x="204" y="280" width="104" height="18" rx="9" fill="#FDBA74"/>
  <path d="M190 336H322L360 392H152L190 336Z" fill="#0F172A"/>
  <circle cx="200" cy="376" r="24" fill="#1E293B"/>
  <circle cx="312" cy="376" r="24" fill="#1E293B"/>
  <circle cx="200" cy="376" r="10" fill="#F8FAFC"/>
  <circle cx="312" cy="376" r="10" fill="#F8FAFC"/>
  <path d="M110 420H402" stroke="#334155" stroke-width="22" stroke-linecap="round"/>
  <path d="M116 96C145 84 173 78 206 78H306C339 78 367 84 396 96" stroke="#FDE68A" stroke-width="14" stroke-linecap="round" opacity="0.9"/>
  <defs>
    <linearGradient id="paint0_linear" x1="108" y1="90" x2="405" y2="420" gradientUnits="userSpaceOnUse">
      <stop stop-color="#2563EB"/>
      <stop offset="0.5" stop-color="#0EA5E9"/>
      <stop offset="1" stop-color="#14B8A6"/>
    </linearGradient>
  </defs>
</svg>
